<svg width="26" height="26" viewBox="0 0 26 26" fill="none" xmlns="http://www.w3.org/2000/svg">
<g clip-path="url(#clip0_101_17)">
<path d="M19.4934 2.47652C18.1711 1.29519 16.5517 0.49682 14.8094 0.167322C13.0671 -0.162176 11.268 -0.0103245 9.60564 0.606536C7.94326 1.2234 6.48057 2.28191 5.37498 3.66816C4.26939 5.05441 3.56276 6.71591 3.33113 8.47386C3.12311 10.0153 3.28948 11.5841 3.81616 13.0476C4.34284 14.5111 5.21433 15.8262 6.35688 16.8816C7.06343 17.5012 7.63357 18.2608 8.03115 19.1123C8.42874 19.9638 8.64511 20.8886 8.66655 21.8281V22.0025C8.66769 23.0624 9.08923 24.0785 9.83865 24.8279C10.5881 25.5774 11.6042 25.9989 12.664 26H13.3357C14.3956 25.9989 15.4117 25.5774 16.1611 24.8279C16.9105 24.0785 17.3321 23.0624 17.3332 22.0025V21.4078C17.3494 20.5774 17.5448 19.7603 17.9061 19.0123C18.2673 18.2644 18.7859 17.6034 19.4262 17.0744C20.4647 16.1649 21.298 15.0451 21.8711 13.7892C22.4441 12.5333 22.7437 11.17 22.75 9.78954C22.7564 8.4091 22.4693 7.04307 21.9079 5.78194C21.3464 4.52082 20.5234 3.39339 19.4934 2.47436V2.47652ZM13.3357 23.8334H12.664C12.1787 23.8328 11.7133 23.6397 11.3701 23.2965C11.0269 22.9533 10.8338 22.4879 10.8332 22.0025C10.8332 22.0025 10.8256 21.7209 10.8245 21.6667H15.1665V22.0025C15.166 22.4879 14.9729 22.9533 14.6297 23.2965C14.2864 23.6397 13.8211 23.8328 13.3357 23.8334ZM17.994 15.4473C16.7606 16.5171 15.8698 17.9268 15.433 19.5H14.0832V11.7174C14.7147 11.4941 15.2618 11.0812 15.6496 10.5351C16.0375 9.98904 16.2471 9.33647 16.2499 8.66669C16.2499 8.37937 16.1357 8.10382 15.9326 7.90066C15.7294 7.69749 15.4539 7.58336 15.1665 7.58336C14.8792 7.58336 14.6037 7.69749 14.4005 7.90066C14.1973 8.10382 14.0832 8.37937 14.0832 8.66669C14.0832 8.95401 13.9691 9.22956 13.7659 9.43272C13.5627 9.63589 13.2872 9.75002 12.9999 9.75002C12.7126 9.75002 12.437 9.63589 12.2338 9.43272C12.0307 9.22956 11.9165 8.95401 11.9165 8.66669C11.9165 8.37937 11.8024 8.10382 11.5992 7.90066C11.3961 7.69749 11.1205 7.58336 10.8332 7.58336C10.5459 7.58336 10.2703 7.69749 10.0672 7.90066C9.86402 8.10382 9.74988 8.37937 9.74988 8.66669C9.75266 9.33647 9.9623 9.98904 10.3501 10.5351C10.738 11.0812 11.2851 11.4941 11.9165 11.7174V19.5H10.4844C9.99579 17.885 9.07942 16.4322 7.83238 15.2956C6.77392 14.3093 6.01967 13.0409 5.65864 11.6399C5.29761 10.2389 5.34488 8.76389 5.79486 7.38889C6.24484 6.0139 7.07875 4.79632 8.19819 3.87983C9.31762 2.96335 10.6759 2.38621 12.1126 2.21652C12.4105 2.18327 12.7099 2.16664 13.0096 2.16669C14.8703 2.16116 16.6666 2.8477 18.0493 4.09286C18.8506 4.80742 19.4909 5.68415 19.9277 6.66493C20.3645 7.64572 20.5879 8.70814 20.583 9.78179C20.5781 10.8554 20.345 11.9158 19.8992 12.8925C19.4534 13.8693 18.8051 14.7401 17.9973 15.4473H17.994Z" fill="#343434"/>
</g>
<defs>
<clipPath id="clip0_101_17">
<rect width="26" height="26" fill="white"/>
</clipPath>
</defs>
</svg>
