<svg width="25" height="25" viewBox="0 0 25 25" fill="none" xmlns="http://www.w3.org/2000/svg">
<path d="M25 22.5479L18.4846 16.0844C19.71 14.4125 20.4345 12.3562 20.4345 10.1354C20.4345 4.54688 15.8511 0 10.2167 0C4.58335 0 0 4.54688 0 10.1354C0 15.725 4.58335 20.2708 10.2167 20.2708C12.3525 20.2708 14.336 19.6177 15.9782 18.5021L22.5282 25L25 22.5479ZM2.99677 10.1354C2.99677 6.18542 6.23609 2.97187 10.2178 2.97187C14.1995 2.97187 17.4388 6.18542 17.4388 10.1354C17.4388 14.0854 14.1995 17.299 10.2178 17.299C6.23504 17.299 2.99677 14.0854 2.99677 10.1354Z" fill="#FB6320"/>
</svg>
